<svg height="512" viewBox="0 0 64 64" width="512" xmlns="http://www.w3.org/2000/svg"><g id="cup_cake" data-name="cup cake"><path d="m52 61h-40l-4-26h48z" fill="#9bc9ff"/><path d="m40.333 61h-16.666l-1.667-26h20z" fill="#57a4ff"/><path d="m8 27a24 24 0 0 1 48 0z" fill="#ffc477"/><path d="m61 30a6.991 6.991 0 0 1 -5.27 6.78 6.564 6.564 0 0 1 -1.73.22h-44a6.564 6.564 0 0 1 -1.73-.22 7 7 0 0 1 .03-13.57 6.767 6.767 0 0 1 1.7-.21h44a6.767 6.767 0 0 1 1.7.21 6.986 6.986 0 0 1 5.3 6.79z" fill="#ffb655"/><path d="m56.56 22.43a24.977 24.977 0 0 0 -49.12 0 7.987 7.987 0 0 0 -.06 15.12l3.63 23.6a1.008 1.008 0 0 0 .99.85h40a1.008 1.008 0 0 0 .99-.85l3.63-23.6a7.987 7.987 0 0 0 -.06-15.12zm-24.56-18.43a22.859 22.859 0 0 1 22.44 18.02c-.15-.01-.29-.02-.44-.02h-44c-.15 0-.29.01-.44.02a22.859 22.859 0 0 1 22.44-18.02zm-19.14 56-3.39-22.03c.17.01.35.03.53.03h11.19l1.41 22zm26.53 0h-14.78l-1.41-22h17.6zm11.75 0h-9.74l1.41-22h11.19c.18 0 .36-.02.53-.03zm2.86-24h-44a6 6 0 0 1 0-12h44a6 6 0 0 1 0 12z"/><path d="m25 7h4v2h-4z"/><path d="m18 14h2v2h-2z"/><path d="m23 17h2v2h-2z"/><path d="m35 12h4v2h-4z"/><path d="m33 19h2v2h-2z"/><path d="m46 18h2v2h-2z"/><path d="m41 8h2v2h-2z"/></g></svg>